<mxfile host="app.diagrams.net" modified="2023-05-20T03:30:32.476Z" agent="Mozilla/5.0 (Windows NT 10.0; Win64; x64; rv:109.0) Gecko/20100101 Firefox/113.0" etag="5iTUib2J2o_Ti44Wh3-2" version="21.3.2" type="device">
  <diagram name="Page-1" id="l8iS71WG1GaFusM7zTBg">
    <mxGraphModel dx="1434" dy="782" grid="1" gridSize="10" guides="1" tooltips="1" connect="1" arrows="1" fold="1" page="1" pageScale="1" pageWidth="827" pageHeight="1169" math="0" shadow="0">
      <root>
        <mxCell id="0" />
        <mxCell id="1" parent="0" />
        <mxCell id="9kdT3CoZ0wVeUw6Ti21M-26" value="Menu" style="swimlane;fontStyle=1;align=center;verticalAlign=top;childLayout=stackLayout;horizontal=1;startSize=26;horizontalStack=0;resizeParent=1;resizeParentMax=0;resizeLast=0;collapsible=1;marginBottom=0;whiteSpace=wrap;html=1;" parent="1" vertex="1">
          <mxGeometry x="110" y="170" width="170" height="218" as="geometry" />
        </mxCell>
        <mxCell id="9kdT3CoZ0wVeUw6Ti21M-27" value="+ mainMenu: bool&lt;br&gt;- gamePanel: GameObject&lt;br&gt;&lt;div&gt;- difficultyPanel: GameObject&lt;/div&gt;&lt;div&gt;- gamePanel: GameObject&lt;/div&gt;&lt;div&gt;- pausePanel: GameObject&lt;br&gt;&lt;/div&gt;&lt;div&gt;- endPanel: GameObject&lt;br&gt;&lt;/div&gt;" style="text;strokeColor=none;fillColor=none;align=left;verticalAlign=top;spacingLeft=4;spacingRight=4;overflow=hidden;rotatable=0;points=[[0,0.5],[1,0.5]];portConstraint=eastwest;whiteSpace=wrap;html=1;" parent="9kdT3CoZ0wVeUw6Ti21M-26" vertex="1">
          <mxGeometry y="26" width="170" height="94" as="geometry" />
        </mxCell>
        <mxCell id="9kdT3CoZ0wVeUw6Ti21M-28" value="" style="line;strokeWidth=1;fillColor=none;align=left;verticalAlign=middle;spacingTop=-1;spacingLeft=3;spacingRight=3;rotatable=0;labelPosition=right;points=[];portConstraint=eastwest;strokeColor=inherit;" parent="9kdT3CoZ0wVeUw6Ti21M-26" vertex="1">
          <mxGeometry y="120" width="170" height="8" as="geometry" />
        </mxCell>
        <mxCell id="9kdT3CoZ0wVeUw6Ti21M-29" value="MainMenu()&lt;br&gt;PauseMenu()&lt;br&gt;PlayGame()&lt;br&gt;&lt;div&gt;QuitGame()&lt;/div&gt;&lt;div&gt;EndGame()&lt;br&gt;&lt;/div&gt;" style="text;strokeColor=none;fillColor=none;align=left;verticalAlign=top;spacingLeft=4;spacingRight=4;overflow=hidden;rotatable=0;points=[[0,0.5],[1,0.5]];portConstraint=eastwest;whiteSpace=wrap;html=1;" parent="9kdT3CoZ0wVeUw6Ti21M-26" vertex="1">
          <mxGeometry y="128" width="170" height="90" as="geometry" />
        </mxCell>
        <mxCell id="9kdT3CoZ0wVeUw6Ti21M-46" value="GameManager" style="swimlane;fontStyle=1;align=center;verticalAlign=top;childLayout=stackLayout;horizontal=1;startSize=26;horizontalStack=0;resizeParent=1;resizeParentMax=0;resizeLast=0;collapsible=1;marginBottom=0;whiteSpace=wrap;html=1;" parent="1" vertex="1">
          <mxGeometry x="310" y="250" width="160" height="230" as="geometry" />
        </mxCell>
        <mxCell id="9kdT3CoZ0wVeUw6Ti21M-47" value="+ score: int&lt;br&gt;+ difficulty : int&lt;br&gt;+ guesses: int&lt;br&gt;+word: string&lt;br&gt;+letter: char" style="text;strokeColor=none;fillColor=none;align=left;verticalAlign=top;spacingLeft=4;spacingRight=4;overflow=hidden;rotatable=0;points=[[0,0.5],[1,0.5]];portConstraint=eastwest;whiteSpace=wrap;html=1;" parent="9kdT3CoZ0wVeUw6Ti21M-46" vertex="1">
          <mxGeometry y="26" width="160" height="104" as="geometry" />
        </mxCell>
        <mxCell id="9kdT3CoZ0wVeUw6Ti21M-48" value="" style="line;strokeWidth=1;fillColor=none;align=left;verticalAlign=middle;spacingTop=-1;spacingLeft=3;spacingRight=3;rotatable=0;labelPosition=right;points=[];portConstraint=eastwest;strokeColor=inherit;" parent="9kdT3CoZ0wVeUw6Ti21M-46" vertex="1">
          <mxGeometry y="130" width="160" height="8" as="geometry" />
        </mxCell>
        <mxCell id="9kdT3CoZ0wVeUw6Ti21M-49" value="SetDifficulty()&lt;br&gt;DisplayWord()&lt;br&gt;PlayerInput()&lt;br&gt;CheckLetter()" style="text;strokeColor=none;fillColor=none;align=left;verticalAlign=top;spacingLeft=4;spacingRight=4;overflow=hidden;rotatable=0;points=[[0,0.5],[1,0.5]];portConstraint=eastwest;whiteSpace=wrap;html=1;" parent="9kdT3CoZ0wVeUw6Ti21M-46" vertex="1">
          <mxGeometry y="138" width="160" height="92" as="geometry" />
        </mxCell>
        <mxCell id="tNA1-qNBAwHYwjkVZF_h-1" value="Score" style="swimlane;fontStyle=1;align=center;verticalAlign=top;childLayout=stackLayout;horizontal=1;startSize=26;horizontalStack=0;resizeParent=1;resizeParentMax=0;resizeLast=0;collapsible=1;marginBottom=0;whiteSpace=wrap;html=1;" vertex="1" parent="1">
          <mxGeometry x="120" y="402" width="150" height="148" as="geometry" />
        </mxCell>
        <mxCell id="tNA1-qNBAwHYwjkVZF_h-2" value="&lt;div&gt;+ score: int&lt;/div&gt;&lt;div&gt;- scoreText:textMeshPro&lt;/div&gt;" style="text;strokeColor=none;fillColor=none;align=left;verticalAlign=top;spacingLeft=4;spacingRight=4;overflow=hidden;rotatable=0;points=[[0,0.5],[1,0.5]];portConstraint=eastwest;whiteSpace=wrap;html=1;" vertex="1" parent="tNA1-qNBAwHYwjkVZF_h-1">
          <mxGeometry y="26" width="150" height="44" as="geometry" />
        </mxCell>
        <mxCell id="tNA1-qNBAwHYwjkVZF_h-3" value="" style="line;strokeWidth=1;fillColor=none;align=left;verticalAlign=middle;spacingTop=-1;spacingLeft=3;spacingRight=3;rotatable=0;labelPosition=right;points=[];portConstraint=eastwest;strokeColor=inherit;" vertex="1" parent="tNA1-qNBAwHYwjkVZF_h-1">
          <mxGeometry y="70" width="150" height="8" as="geometry" />
        </mxCell>
        <mxCell id="tNA1-qNBAwHYwjkVZF_h-4" value="&lt;div&gt;CalculateScore(string):int&lt;/div&gt;&lt;div&gt;DisplayScore()&lt;br&gt;&lt;/div&gt;" style="text;strokeColor=none;fillColor=none;align=left;verticalAlign=top;spacingLeft=4;spacingRight=4;overflow=hidden;rotatable=0;points=[[0,0.5],[1,0.5]];portConstraint=eastwest;whiteSpace=wrap;html=1;" vertex="1" parent="tNA1-qNBAwHYwjkVZF_h-1">
          <mxGeometry y="78" width="150" height="70" as="geometry" />
        </mxCell>
        <mxCell id="tNA1-qNBAwHYwjkVZF_h-5" value="DictLoad" style="swimlane;fontStyle=1;align=center;verticalAlign=top;childLayout=stackLayout;horizontal=1;startSize=26;horizontalStack=0;resizeParent=1;resizeParentMax=0;resizeLast=0;collapsible=1;marginBottom=0;whiteSpace=wrap;html=1;" vertex="1" parent="1">
          <mxGeometry x="510" y="310" width="160" height="148" as="geometry" />
        </mxCell>
        <mxCell id="tNA1-qNBAwHYwjkVZF_h-6" value="&lt;div&gt;+ wordList: array&lt;/div&gt;&lt;div&gt;+ dictFile : textAsset&lt;br&gt;&lt;/div&gt;" style="text;strokeColor=none;fillColor=none;align=left;verticalAlign=top;spacingLeft=4;spacingRight=4;overflow=hidden;rotatable=0;points=[[0,0.5],[1,0.5]];portConstraint=eastwest;whiteSpace=wrap;html=1;" vertex="1" parent="tNA1-qNBAwHYwjkVZF_h-5">
          <mxGeometry y="26" width="160" height="44" as="geometry" />
        </mxCell>
        <mxCell id="tNA1-qNBAwHYwjkVZF_h-7" value="" style="line;strokeWidth=1;fillColor=none;align=left;verticalAlign=middle;spacingTop=-1;spacingLeft=3;spacingRight=3;rotatable=0;labelPosition=right;points=[];portConstraint=eastwest;strokeColor=inherit;" vertex="1" parent="tNA1-qNBAwHYwjkVZF_h-5">
          <mxGeometry y="70" width="160" height="8" as="geometry" />
        </mxCell>
        <mxCell id="tNA1-qNBAwHYwjkVZF_h-8" value="ReadDictionary()" style="text;strokeColor=none;fillColor=none;align=left;verticalAlign=top;spacingLeft=4;spacingRight=4;overflow=hidden;rotatable=0;points=[[0,0.5],[1,0.5]];portConstraint=eastwest;whiteSpace=wrap;html=1;" vertex="1" parent="tNA1-qNBAwHYwjkVZF_h-5">
          <mxGeometry y="78" width="160" height="70" as="geometry" />
        </mxCell>
        <mxCell id="tNA1-qNBAwHYwjkVZF_h-11" value="" style="line;strokeWidth=1;fillColor=none;align=left;verticalAlign=middle;spacingTop=-1;spacingLeft=3;spacingRight=3;rotatable=0;labelPosition=right;points=[];portConstraint=eastwest;strokeColor=inherit;" vertex="1" parent="1">
          <mxGeometry x="470" y="340" width="40" height="8" as="geometry" />
        </mxCell>
        <mxCell id="tNA1-qNBAwHYwjkVZF_h-12" value="" style="line;strokeWidth=1;fillColor=none;align=left;verticalAlign=middle;spacingTop=-1;spacingLeft=3;spacingRight=3;rotatable=0;labelPosition=right;points=[];portConstraint=eastwest;strokeColor=inherit;" vertex="1" parent="1">
          <mxGeometry x="280" y="340" width="30" height="8" as="geometry" />
        </mxCell>
        <mxCell id="tNA1-qNBAwHYwjkVZF_h-13" value="" style="line;strokeWidth=1;fillColor=none;align=left;verticalAlign=middle;spacingTop=-1;spacingLeft=3;spacingRight=3;rotatable=0;labelPosition=right;points=[];portConstraint=eastwest;strokeColor=inherit;" vertex="1" parent="1">
          <mxGeometry x="270" y="420" width="40" height="8" as="geometry" />
        </mxCell>
      </root>
    </mxGraphModel>
  </diagram>
</mxfile>
